<?xml version="1.0" ?><svg height="48" id="黑白" viewBox="0 0 48 48" width="48" xmlns="http://www.w3.org/2000/svg"><title/><path d="M27.82,12.16a1.18,1.18,0,0,0-1.37.88A2.44,2.44,0,0,1,24,14.7,2.44,2.44,0,0,1,21.55,13a1.18,1.18,0,0,0-1.37-.88c-6.44,1.17-10.59,5.3-10.85,10.77a1.17,1.17,0,0,0,.33.88,1.19,1.19,0,0,0,.86.37h4.34v8.51A3.18,3.18,0,0,0,18,35.86H30a3.18,3.18,0,0,0,3.18-3.17V24.18h4.34a1.19,1.19,0,0,0,.86-.37,1.17,1.17,0,0,0,.33-.88C38.41,17.46,34.26,13.33,27.82,12.16Zm5.32,9.63V21a1.2,1.2,0,0,0-2.39,0V32.69a.8.8,0,0,1-.79.79H18a.8.8,0,0,1-.79-.79V21a1.2,1.2,0,0,0-2.39,0v.82h-3c.68-3.48,3.5-6,7.81-7.09a5.12,5.12,0,0,0,8.66,0c4.31,1,7.13,3.61,7.81,7.09Z"/></svg>